<svg width="43" height="43" viewBox="0 0 43 43" fill="none" xmlns="http://www.w3.org/2000/svg">
<path fill-rule="evenodd" clip-rule="evenodd" d="M19.4844 7.39062H23.5156C24.2574 7.39062 24.8594 6.78863 24.8594 6.04688C24.8594 5.30512 24.2574 4.70312 23.5156 4.70312H19.4844C18.7426 4.70312 18.1406 5.30512 18.1406 6.04688C18.1406 6.78863 18.7426 7.39062 19.4844 7.39062Z" fill="white"/>
<path fill-rule="evenodd" clip-rule="evenodd" d="M19.4844 26.2031H23.5156C24.2574 26.2031 24.8594 25.6011 24.8594 24.8594C24.8594 24.1176 24.2574 23.5156 23.5156 23.5156H19.4844C18.7426 23.5156 18.1406 24.1176 18.1406 24.8594C18.1406 25.6011 18.7426 26.2031 19.4844 26.2031Z" fill="white"/>
<path fill-rule="evenodd" clip-rule="evenodd" d="M14.7812 40.9844H28.2188C28.2188 41.7261 28.8207 42.3281 29.5625 42.3281H33.5938C34.3355 42.3281 34.9375 41.7261 34.9375 40.9844H34.9462C35.6846 40.9797 36.2812 40.3797 36.2812 39.6406V2.01562C36.2812 1.2732 35.6799 0.671875 34.9375 0.671875H8.0625C7.32008 0.671875 6.71875 1.2732 6.71875 2.01562V39.6406C6.71875 40.3804 7.31538 40.9797 8.05377 40.9844H8.0625C8.0625 41.7261 8.6645 42.3281 9.40625 42.3281H13.4375C14.1792 42.3281 14.7812 41.7261 14.7812 40.9844ZM33.5938 22.1719V38.2969H9.40625V22.1719H33.5938ZM33.5938 19.4844H9.40625V3.35938H33.5938V19.4844Z" fill="white"/>
</svg>
