<svg width="47" height="47" viewBox="0 0 47 47" fill="none" xmlns="http://www.w3.org/2000/svg">
<path d="M34.5157 41.8595H12.4844C11.5106 41.8595 10.5766 41.4726 9.88799 40.784C9.19938 40.0954 8.81253 39.1614 8.81253 38.1876V27.172H7.9019C7.37258 27.1557 6.86008 26.9822 6.42977 26.6736C5.99946 26.3649 5.67084 25.935 5.48581 25.4388C5.18026 24.772 5.0705 24.0321 5.16932 23.3053C5.26813 22.5785 5.57145 21.8947 6.04393 21.3337L18.5724 7.43197C19.1776 6.71474 19.9322 6.13829 20.7833 5.74287C21.6344 5.34744 22.5615 5.14258 23.5 5.14258C24.4385 5.14258 25.3657 5.34744 26.2168 5.74287C27.0679 6.13829 27.8224 6.71474 28.4277 7.43197L40.9561 21.3337C41.4286 21.8947 41.7319 22.5785 41.8307 23.3053C41.9296 24.0321 41.8198 24.772 41.5142 25.4388C41.3292 25.935 41.0006 26.3649 40.5703 26.6736C40.14 26.9822 39.6275 27.1557 39.0982 27.172H38.1875V38.1876C38.1875 39.1614 37.8007 40.0954 37.1121 40.784C36.4235 41.4726 35.4895 41.8595 34.5157 41.8595ZM23.5 6.60947C22.7681 6.61978 22.0469 6.78629 21.3845 7.09784C20.7221 7.4094 20.1339 7.85882 19.6592 8.41603L7.13081 22.3177C6.85397 22.6707 6.6789 23.0926 6.62454 23.5379C6.57018 23.9832 6.63859 24.4348 6.82237 24.844C6.90428 25.0736 7.04878 25.2758 7.23954 25.4276C7.43031 25.5795 7.65974 25.6749 7.9019 25.7032H9.5469C9.74167 25.7032 9.92846 25.7806 10.0662 25.9183C10.2039 26.056 10.2813 26.2428 10.2813 26.4376V38.1876C10.2813 38.7719 10.5134 39.3323 10.9266 39.7454C11.3397 40.1586 11.9001 40.3907 12.4844 40.3907H34.5157C35.1 40.3907 35.6603 40.1586 36.0735 39.7454C36.4867 39.3323 36.7188 38.7719 36.7188 38.1876V26.4376C36.7188 26.2428 36.7961 26.056 36.9339 25.9183C37.0716 25.7806 37.2584 25.7032 37.4532 25.7032H39.0982C39.3403 25.6749 39.5697 25.5795 39.7605 25.4276C39.9513 25.2758 40.0958 25.0736 40.1777 24.844C40.3615 24.4348 40.4299 23.9832 40.3755 23.5379C40.3212 23.0926 40.1461 22.6707 39.8692 22.3177L27.3408 8.41603C26.8661 7.85882 26.2779 7.4094 25.6156 7.09784C24.9532 6.78629 24.2319 6.61978 23.5 6.60947Z" fill="white"/>
<path d="M27.9062 41.8594H19.0938C18.899 41.8594 18.7122 41.782 18.5745 41.6443C18.4367 41.5066 18.3594 41.3198 18.3594 41.125V29.375C18.3594 28.0116 18.901 26.7041 19.865 25.74C20.8291 24.776 22.1366 24.2344 23.5 24.2344C24.8634 24.2344 26.1709 24.776 27.135 25.74C28.099 26.7041 28.6406 28.0116 28.6406 29.375V41.125C28.6406 41.3198 28.5633 41.5066 28.4255 41.6443C28.2878 41.782 28.101 41.8594 27.9062 41.8594ZM19.8281 40.3906H27.1719V29.375C27.1719 28.4012 26.785 27.4672 26.0964 26.7786C25.4078 26.09 24.4738 25.7031 23.5 25.7031C22.5262 25.7031 21.5922 26.09 20.9036 26.7786C20.215 27.4672 19.8281 28.4012 19.8281 29.375V40.3906Z" fill="white"/>
</svg>
