<svg width="127" height="28" viewBox="0 0 127 28" fill="none" xmlns="http://www.w3.org/2000/svg">
<path d="M44.544 24H42.024C41.48 24 41.12 23.912 40.944 23.736C40.784 23.56 40.704 23.2 40.704 22.656V8.04C40.704 7.48 40.792 7.112 40.968 6.936C41.144 6.744 41.496 6.648 42.024 6.648H44.544V24ZM50.52 13.344V14.784C50.52 15.36 50.464 15.728 50.352 15.888C50.24 16.032 49.92 16.104 49.392 16.104H45.504V13.344H50.52ZM51.48 6.648V8.712C51.48 9.256 51.392 9.616 51.216 9.792C51.04 9.952 50.672 10.032 50.112 10.032H45.504V6.648H51.48ZM57.4313 12H60.3113C60.4073 12 60.4553 12.056 60.4553 12.168V13.632C60.4553 13.744 60.3913 13.8 60.2633 13.8H59.1833C58.7993 13.8 58.5753 13.872 58.5113 14.016C58.4473 14.224 58.4153 14.456 58.4153 14.712V22.152C58.4153 22.696 58.2313 23.144 57.8633 23.496C57.5113 23.832 56.9833 24 56.2793 24H54.8153V14.664C54.8153 13.72 55.0233 13.04 55.4393 12.624C55.8713 12.208 56.5353 12 57.4313 12ZM63.7329 12.024H65.1969C65.9009 12.024 66.4289 12.2 66.7809 12.552C67.1489 12.888 67.3329 13.328 67.3329 13.872V24H64.5969C64.3409 24 64.1329 23.912 63.9729 23.736C63.8129 23.56 63.7329 23.328 63.7329 23.04V12.024ZM63.9009 6.912C64.0769 6.736 64.5889 6.648 65.4369 6.648C66.2849 6.648 66.7969 6.736 66.9729 6.912C67.1489 7.072 67.2369 7.552 67.2369 8.352C67.2369 9.152 67.1409 9.64 66.9489 9.816C66.7729 9.992 66.2689 10.08 65.4369 10.08C64.6049 10.08 64.0929 9.992 63.9009 9.816C63.7249 9.64 63.6369 9.152 63.6369 8.352C63.6369 7.552 63.7249 7.072 63.9009 6.912ZM75.0765 24H75.0285C73.4445 24 72.4685 23.728 72.1005 23.184C71.9245 22.928 71.7805 22.68 71.6685 22.44C71.5725 22.2 71.5085 21.824 71.4765 21.312C71.3965 20.384 71.3565 19.352 71.3565 18.216C71.3565 17.08 71.3645 16.264 71.3805 15.768C71.3965 15.256 71.4445 14.744 71.5245 14.232C71.6205 13.704 71.7405 13.328 71.8845 13.104C72.0285 12.864 72.2445 12.648 72.5325 12.456C72.8205 12.264 73.1565 12.144 73.5405 12.096C73.9245 12.032 74.4205 12 75.0285 12H75.0765V24ZM81.4605 20.208V21.432C81.4605 23.144 80.5885 24 78.8445 24H75.8205V22.2H77.1165C77.4525 22.2 77.6605 22.152 77.7405 22.056C77.8205 21.944 77.8605 21.752 77.8605 21.48V20.712C77.8605 20.472 77.8845 20.336 77.9325 20.304C77.9965 20.272 78.0365 20.256 78.0525 20.256C78.0685 20.24 78.1085 20.232 78.1725 20.232C78.2525 20.216 78.3085 20.208 78.3405 20.208C79.3805 20.208 80.4205 20.208 81.4605 20.208ZM75.8205 12H78.6045C79.7085 12 80.4605 12.216 80.8605 12.648C81.2605 13.08 81.4605 13.72 81.4605 14.568V16.68C81.4605 18.12 80.6765 18.84 79.1085 18.84H75.5805V17.04H76.8765C77.2605 17.04 77.5165 16.992 77.6445 16.896C77.7885 16.8 77.8605 16.616 77.8605 16.344V14.52C77.8605 14.248 77.8205 14.064 77.7405 13.968C77.6605 13.856 77.4525 13.8 77.1165 13.8H75.8205V12ZM89.6333 12H92.9933C94.7373 12 95.6093 12.856 95.6093 14.568V24H92.8733C92.6173 24 92.4093 23.912 92.2493 23.736C92.0893 23.56 92.0093 23.328 92.0093 23.04V14.52C92.0093 14.264 91.9453 14.08 91.8173 13.968C91.7053 13.856 91.4413 13.8 91.0253 13.8H89.6333V12ZM85.4333 12H86.8973C87.6013 12 88.1293 12.176 88.4813 12.528C88.8493 12.864 89.0333 13.304 89.0333 13.848V24H86.2973C86.0413 24 85.8333 23.912 85.6733 23.736C85.5133 23.56 85.4333 23.328 85.4333 23.04V12ZM105.619 13.8H104.323C103.907 13.8 103.635 13.856 103.507 13.968C103.395 14.08 103.339 14.264 103.339 14.52V21.504C103.339 21.744 103.395 21.92 103.507 22.032C103.635 22.144 103.907 22.2 104.323 22.2H105.619V24H103.291C101.707 24 100.731 23.728 100.363 23.184C100.187 22.928 100.043 22.68 99.9313 22.44C99.8353 22.2 99.7713 21.824 99.7393 21.312C99.6593 20.384 99.6193 19.352 99.6193 18.216C99.6193 17.08 99.6273 16.264 99.6433 15.768C99.6593 15.256 99.7073 14.744 99.7873 14.232C99.8833 13.704 100.003 13.328 100.147 13.104C100.291 12.864 100.507 12.648 100.795 12.456C101.083 12.264 101.419 12.144 101.803 12.096C102.187 12.032 102.683 12 103.291 12H105.619V13.8ZM106.339 6.648H107.803C108.507 6.648 109.035 6.824 109.387 7.176C109.755 7.512 109.939 7.952 109.939 8.496V22.152C109.939 22.696 109.755 23.144 109.387 23.496C109.035 23.832 108.507 24 107.803 24H106.339V6.648ZM117.429 12V16.392C117.429 16.664 117.469 16.856 117.549 16.968C117.629 17.064 117.837 17.112 118.173 17.112H119.517V18.912H116.445C114.701 18.912 113.829 18.056 113.829 16.344V14.664C113.829 13.608 114.093 12.904 114.621 12.552C115.165 12.184 116.101 12 117.429 12ZM117.477 20.208V21.48C117.477 21.752 117.517 21.944 117.597 22.056C117.677 22.152 117.885 22.2 118.221 22.2H119.517V24H116.493C114.749 24 113.877 23.144 113.877 21.432V20.712C113.877 20.472 113.901 20.336 113.949 20.304C114.013 20.272 114.053 20.256 114.069 20.256C114.085 20.24 114.125 20.232 114.189 20.232C114.269 20.216 114.317 20.208 114.333 20.208C115.389 20.208 116.437 20.208 117.477 20.208ZM120.237 17.112H121.221C122.965 17.112 123.837 17.968 123.837 19.68V21.336C123.837 22.392 123.565 23.104 123.021 23.472C122.493 23.824 121.565 24 120.237 24V17.112ZM118.149 12H121.173C122.917 12 123.789 12.856 123.789 14.568V15.816C122.717 15.816 121.901 15.816 121.341 15.816C120.781 15.816 120.493 15.816 120.477 15.816C120.461 15.8 120.429 15.792 120.381 15.792C120.349 15.776 120.325 15.76 120.309 15.744C120.293 15.728 120.277 15.712 120.261 15.696C120.245 15.664 120.237 15.632 120.237 15.6C120.205 15.472 120.189 15.376 120.189 15.312V14.52C120.189 14.248 120.149 14.064 120.069 13.968C119.989 13.856 119.781 13.8 119.445 13.8H118.149V12Z" fill="#00C150"/>
<path d="M8.16 8.928H5.928C5.672 8.928 5.544 8.992 5.544 9.12V24H3.024C2.48 24 2.12 23.912 1.944 23.736C1.784 23.56 1.704 23.192 1.704 22.632V8.016C1.704 7.456 1.784 7.088 1.944 6.912C2.12 6.736 2.48 6.648 3.024 6.648H8.16V8.928ZM9.12 6.648H11.64C12.184 6.648 12.536 6.736 12.696 6.912C12.872 7.088 12.96 7.456 12.96 8.016V22.608C12.96 23.168 12.872 23.544 12.696 23.736C12.52 23.912 12.168 24 11.64 24H9.12V15.96H6.504V13.68H9.12V6.648ZM21.7039 12H25.0639C26.8079 12 27.6799 12.856 27.6799 14.568V24H24.9439C24.6879 24 24.4799 23.912 24.3199 23.736C24.1599 23.56 24.0799 23.328 24.0799 23.04V14.52C24.0799 14.264 24.0159 14.08 23.8879 13.968C23.7759 13.856 23.5119 13.8 23.0959 13.8H21.7039V12ZM17.5039 12H18.9679C19.6719 12 20.1999 12.176 20.5519 12.528C20.9199 12.864 21.1039 13.304 21.1039 13.848V24H18.3679C18.1119 24 17.9039 23.912 17.7439 23.736C17.5839 23.56 17.5039 23.328 17.5039 23.04V12ZM31.8579 12.024H33.3219C34.0259 12.024 34.5539 12.2 34.9059 12.552C35.2739 12.888 35.4579 13.328 35.4579 13.872V24H32.7219C32.4659 24 32.2579 23.912 32.0979 23.736C31.9379 23.56 31.8579 23.328 31.8579 23.04V12.024ZM32.0259 6.912C32.2019 6.736 32.7139 6.648 33.5619 6.648C34.4099 6.648 34.9219 6.736 35.0979 6.912C35.2739 7.072 35.3619 7.552 35.3619 8.352C35.3619 9.152 35.2659 9.64 35.0739 9.816C34.8979 9.992 34.3939 10.08 33.5619 10.08C32.7299 10.08 32.2179 9.992 32.0259 9.816C31.8499 9.64 31.7619 9.152 31.7619 8.352C31.7619 7.552 31.8499 7.072 32.0259 6.912Z" fill="#FF8A00"/>
</svg>
