<svg width="40" height="40" viewBox="0 0 40 40" fill="none" xmlns="http://www.w3.org/2000/svg">
<path d="M21.6667 40H18.3333C16.955 40 15.8333 38.8783 15.8333 37.5V34.3967C14.7667 34.0883 13.74 33.6625 12.7658 33.1242L10.5708 35.32C9.62583 36.265 7.98 36.2633 7.035 35.32L4.6775 32.9633C4.205 32.4917 3.945 31.8633 3.945 31.1958C3.945 30.5283 4.205 29.9 4.6775 29.4283L6.87333 27.2317C6.33583 26.26 5.91 25.2333 5.6025 24.1658H2.5C1.12167 24.1658 0 23.0442 0 21.6658V18.3325C0 17.6642 0.26 17.0367 0.731667 16.565C1.20417 16.0933 1.83167 15.8325 2.5 15.8325H5.60333C5.91167 14.7675 6.33667 13.74 6.875 12.7667L4.68 10.5708C3.705 9.59583 3.705 8.01083 4.68 7.03583L7.03667 4.67833C7.98083 3.735 9.6275 3.73333 10.5725 4.67833L12.7683 6.87417C13.7417 6.33667 14.7683 5.91083 15.8333 5.60333V2.5C15.8333 1.12167 16.955 0 18.3333 0H21.6667C23.045 0 24.1667 1.12167 24.1667 2.5V5.60333C25.2333 5.91167 26.26 6.3375 27.2317 6.87417L29.4275 4.67833C30.3725 3.735 32.0183 3.73333 32.9633 4.67833L35.3208 7.035C35.7933 7.50667 36.0533 8.135 36.0533 8.8025C36.0533 9.47 35.7933 10.0983 35.3208 10.57L33.1258 12.7658C33.6642 13.7392 34.09 14.7658 34.3975 15.8325H37.5C38.8783 15.8325 40 16.9542 40 18.3325V21.6658C40 22.3342 39.74 22.9617 39.2683 23.4333C38.7967 23.905 38.1683 24.1658 37.5 24.1658H34.3967C34.0883 25.2325 33.6625 26.26 33.125 27.2325L35.32 29.4283C36.295 30.4033 36.295 31.9883 35.32 32.9633L32.9633 35.3208C32.0183 36.265 30.3725 36.265 29.4275 35.3208L27.2333 33.125C26.26 33.6633 25.2325 34.0883 24.1675 34.3967V37.5C24.1667 38.8783 23.0458 40 21.6667 40ZM12.6308 31.2483C12.78 31.2483 12.9308 31.2883 13.065 31.37C14.245 32.0917 15.5225 32.6217 16.8625 32.9458C17.2367 33.0367 17.5 33.3708 17.5 33.7558V37.5C17.5 37.96 17.8742 38.3333 18.3333 38.3333H21.6667C22.1258 38.3333 22.5 37.96 22.5 37.5V33.7558C22.5 33.3708 22.7633 33.0367 23.1375 32.9458C24.4758 32.6217 25.7533 32.0933 26.9342 31.3708C27.2642 31.17 27.6858 31.2208 27.9583 31.4925L30.6067 34.1417C30.9192 34.4533 31.4725 34.455 31.7858 34.1417L34.1425 31.7842C34.4675 31.4592 34.4675 30.9308 34.1425 30.6058L31.4933 27.9567C31.2208 27.685 31.1708 27.2608 31.3717 26.9325C32.0925 25.7542 32.6217 24.4767 32.9458 23.1358C33.0358 22.7617 33.3708 22.4975 33.7558 22.4975H37.5C37.7225 22.4975 37.9325 22.4108 38.09 22.2533C38.2467 22.0983 38.3333 21.8892 38.3333 21.6658V18.3325C38.3333 17.8725 37.9592 17.4992 37.5 17.4992H33.7558C33.3708 17.4992 33.0358 17.2358 32.9458 16.8608C32.6225 15.5217 32.0933 14.2442 31.3717 13.0642C31.1708 12.7358 31.2208 12.3133 31.4933 12.04L34.1425 9.39083C34.2975 9.235 34.3867 9.02083 34.3867 8.80167C34.3867 8.5825 34.2975 8.3675 34.1425 8.2125L31.785 5.85583C31.47 5.54167 30.9208 5.54167 30.6058 5.85583L27.9567 8.505C27.685 8.77833 27.2625 8.82917 26.9325 8.62667C25.755 7.90667 24.4783 7.37667 23.1375 7.0525C22.7642 6.96333 22.5 6.62917 22.5 6.24417V2.5C22.5 2.04 22.1258 1.66667 21.6667 1.66667H18.3333C17.8742 1.66667 17.5 2.04 17.5 2.5V6.24417C17.5 6.62917 17.2367 6.96333 16.8625 7.05417C15.5242 7.3775 14.2467 7.90667 13.0658 8.62833C12.7367 8.82917 12.3142 8.77917 12.0425 8.50667L9.39333 5.8575C9.07833 5.54333 8.52917 5.54333 8.21417 5.8575L5.85833 8.21417C5.53333 8.53917 5.53333 9.0675 5.85833 9.3925L8.5075 12.0417C8.78 12.3133 8.83 12.7375 8.62917 13.0658C7.9075 14.2458 7.37833 15.5233 7.055 16.8617C6.965 17.2358 6.63 17.5 6.245 17.5H2.5C2.2775 17.5 2.0675 17.5867 1.91 17.7442C1.75333 17.9 1.66667 18.1092 1.66667 18.3325V21.6658C1.66667 22.1258 2.04083 22.4992 2.5 22.4992H6.24417C6.62917 22.4992 6.96417 22.7625 7.05417 23.1375C7.37833 24.4775 7.9075 25.755 8.62833 26.9333C8.82917 27.2617 8.77917 27.6842 8.50667 27.9575L5.8575 30.6075C5.7025 30.7633 5.61333 30.9775 5.61333 31.1967C5.61333 31.4158 5.7025 31.6308 5.8575 31.7858L8.215 34.1425C8.52917 34.4567 9.07917 34.4567 9.39417 34.1425L12.0425 31.4933C12.2025 31.3317 12.415 31.2483 12.6308 31.2483Z" fill="white"/>
<path d="M20.0001 28.3333C15.4051 28.3333 11.6667 24.595 11.6667 20C11.6667 15.405 15.4051 11.6666 20.0001 11.6666C24.5951 11.6666 28.3334 15.405 28.3334 20C28.3334 24.595 24.5959 28.3333 20.0001 28.3333ZM20.0001 13.3333C16.3242 13.3333 13.3334 16.3241 13.3334 20C13.3334 23.6758 16.3242 26.6666 20.0001 26.6666C23.6759 26.6666 26.6667 23.6758 26.6667 20C26.6667 16.3241 23.6767 13.3333 20.0001 13.3333Z" fill="white"/>
</svg>
