<svg width="48" height="48" viewBox="0 0 48 48" fill="none" xmlns="http://www.w3.org/2000/svg">
<path fill-rule="evenodd" clip-rule="evenodd" d="M24 45C12.402 45 3 35.598 3 24C3 12.402 12.402 3 24 3C35.598 3 45 12.402 45 24C45 35.598 35.598 45 24 45ZM35.633 39C35.476 38.769 35.278 38.482 35.119 38.258C34.842 37.864 34.565 37.47 34.317 37.08C34.305 37.062 32.935 35.224 28 35C26.283 35 25.035 33.712 25.032 31.934L25 31C24.984 31.148 25 30.865 25 31V30L26 29C26.731 28.661 27.66 28.091 28.395 27.536L28.53 27.443C29.111 27.074 29.923 26.297 30 26L30.036 25.619C30.409 23.696 31 20.198 31 19C31 14.29 28.71 12 24 12C19.225 12 17 14.224 17 19C17 20.23 17.591 23.711 17.963 25.616L17.998 25.968C18.061 26.281 18.797 27.022 19.447 27.43L19.545 27.492C20.333 28.043 21.275 28.657 22 29L23 30V31C23 30.854 23.014 31.138 23 31L22.967 31.934C22.967 33.709 21.721 34.998 20.084 34.998C20.083 34.998 20.082 34.998 20.081 34.998C15.125 35.199 13.688 37.075 13.686 37.075C13.434 37.471 13.158 37.864 12.879 38.259C12.722 38.483 12.524 38.769 12.366 39C15.583 41.498 19.611 43 23.999 43C28.387 43 32.416 41.498 35.633 39ZM24 5C13.507 5 5 13.507 5 24C5 29.386 7.25 34.237 10.85 37.694C11.232 37.129 11.64 36.565 12 36C12 36 13.67 33.257 20 33C20.645 33 20.967 32.578 20.967 31.934H20.968C20.967 31.413 20.967 31 20.967 31C20.967 30.87 20.946 30.753 20.94 30.627C20.216 30.285 19.376 29.813 18.401 29.133C18.401 29.133 16.001 27.657 16.001 26C16.001 26 15.001 20.884 15.001 19C15.001 14.356 16.987 10 24.001 10C30.921 10 33.001 14.356 33.001 19C33.001 20.838 32.001 26 32.001 26C32.001 27.611 29.601 29.133 29.601 29.133C28.646 29.854 27.8 30.335 27.058 30.679C27.053 30.788 27.035 30.888 27.035 31C27.035 31 27.034 31.413 27.034 31.934C27.032 32.578 27.355 33 28 33C34.424 33.288 36 36 36 36C36.36 36.565 36.767 37.129 37.149 37.694C40.749 34.237 43 29.386 43 24C43 13.507 34.493 5 24 5Z" fill="white"/>
</svg>
